HIERARCHY
ROOT hip
{
  OFFSET 0 0 0
  CHANNELS 6 Xposition Yposition Zposition Zrotation Yrotation Xrotation
  JOINT abdomen
  {
    OFFSET 0 20.6881 -0.73152
    CHANNELS 3 Zrotation Xrotation Yrotation
    JOINT chest
    {
      OFFSET 0 11.7043 -0.48768
      CHANNELS 3 Zrotation Xrotation Yrotation
      JOINT neck
      {
        OFFSET 0 22.1894 -2.19456
        CHANNELS 3 Zrotation Xrotation Yrotation
        JOINT head
        {
          OFFSET -0.24384 7.07133 1.2192
          CHANNELS 3 Zrotation Xrotation Yrotation
          JOINT leftEye
          {
            OFFSET 4.14528 8.04674 8.04672
            CHANNELS 3 Zrotation Xrotation Yrotation
            End Site
            {
              OFFSET 1 0 0
            }
          }
          JOINT rightEye
          {
            OFFSET -3.6576 8.04674 8.04672
            CHANNELS 3 Zrotation Xrotation Yrotation
            End Site
            {
              OFFSET 1 0 0
            }
          }
        }
      }
      JOINT rCollar
      {
        OFFSET -2.68224 19.2634 -4.8768
        CHANNELS 3 Zrotation Xrotation Yrotation
        JOINT rShldr
        {
          OFFSET -8.77824 -1.95073 1.46304
          CHANNELS 3 Zrotation Xrotation Yrotation
          JOINT rForeArm
          {
            OFFSET -28.1742 -1.7115 0.48768
            CHANNELS 3 Zrotation Xrotation Yrotation
            JOINT rHand
            {
              OFFSET -22.5879 0.773209 7.07136
              CHANNELS 3 Zrotation Xrotation Yrotation
              JOINT rThumb1
              {
                OFFSET -1.2192 -0.487915 3.41376
                CHANNELS 3 Zrotation Xrotation Yrotation
                JOINT rThumb2
                {
                  OFFSET -3.37035 -0.52449 3.41376
                  CHANNELS 3 Zrotation Xrotation Yrotation
                  End Site
                  {
                    OFFSET -1.78271 -1.18214 1.43049
                  }
                }
              }
              JOINT rIndex1
              {
                OFFSET -7.75947 0.938293 5.60832
                CHANNELS 3 Zrotation Xrotation Yrotation
                JOINT rIndex2
                {
                  OFFSET -2.54057 -0.884171 1.56538
                  CHANNELS 3 Zrotation Xrotation Yrotation
                  End Site
                  {
                    OFFSET -1.62519 -0.234802 1.16502
                  }
                }
              }
              JOINT rMid1
              {
                OFFSET -8.24714 1.18213 3.41376
                CHANNELS 3 Zrotation Xrotation Yrotation
                JOINT rMid2
                {
                  OFFSET -3.10165 -0.590103 1.0647
                  CHANNELS 3 Zrotation Xrotation Yrotation
                  End Site
                  {
                    OFFSET -2.48547 -0.328903 0.83742
                  }
                }
              }
              JOINT rRing1
              {
                OFFSET -8.82822 0.546677 1.51678
                CHANNELS 3 Zrotation Xrotation Yrotation
                JOINT rRing2
                {
                  OFFSET -2.60934 -0.819778 -0.0198488
                  CHANNELS 3 Zrotation Xrotation Yrotation
                  End Site
                  {
                    OFFSET -2.33842 -0.294052 0.168128
                  }
                }
              }
              JOINT rPinky1
              {
                OFFSET -8.27202 -0.0477905 -0.4584
                CHANNELS 3 Zrotation Xrotation Yrotation
                JOINT rPinky2
                {
                  OFFSET -1.82734 -0.647385 -0.700984
                  CHANNELS 3 Zrotation Xrotation Yrotation
                  End Site
                  {
                    OFFSET -1.69225 -0.51767 -0.607171
                  }
                }
              }
            }
          }
        }
      }
      JOINT lCollar
      {
        OFFSET 2.68224 19.2634 -4.8768
        CHANNELS 3 Zrotation Xrotation Yrotation
        JOINT lShldr
        {
          OFFSET 8.77824 -1.95073 1.46304
          CHANNELS 3 Zrotation Xrotation Yrotation
          JOINT lForeArm
          {
            OFFSET 28.1742 -1.7115 0.48768
            CHANNELS 3 Zrotation Xrotation Yrotation
            JOINT lHand
            {
              OFFSET 22.5879 0.773209 7.07136
              CHANNELS 3 Zrotation Xrotation Yrotation
              JOINT lThumb1
              {
                OFFSET 1.2192 -0.487915 3.41376
                CHANNELS 3 Zrotation Xrotation Yrotation
                JOINT lThumb2
                {
                  OFFSET 3.37035 -0.52449 3.41376
                  CHANNELS 3 Zrotation Xrotation Yrotation
                  End Site
                  {
                    OFFSET 1.78271 -1.18214 1.43049
                  }
                }
              }
              JOINT lIndex1
              {
                OFFSET 7.75947 0.938293 5.60832
                CHANNELS 3 Zrotation Xrotation Yrotation
                JOINT lIndex2
                {
                  OFFSET 2.54057 -0.884171 1.56538
                  CHANNELS 3 Zrotation Xrotation Yrotation
                  End Site
                  {
                    OFFSET 1.62519 -0.234802 1.16502
                  }
                }
              }
              JOINT lMid1
              {
                OFFSET 8.24714 1.18213 3.41376
                CHANNELS 3 Zrotation Xrotation Yrotation
                JOINT lMid2
                {
                  OFFSET 3.10165 -0.590103 1.0647
                  CHANNELS 3 Zrotation Xrotation Yrotation
                  End Site
                  {
                    OFFSET 2.48547 -0.328903 0.83742
                  }
                }
              }
              JOINT lRing1
              {
                OFFSET 8.82822 0.546677 1.51678
                CHANNELS 3 Zrotation Xrotation Yrotation
                JOINT lRing2
                {
                  OFFSET 2.60934 -0.819778 -0.0198488
                  CHANNELS 3 Zrotation Xrotation Yrotation
                  End Site
                  {
                    OFFSET 2.33842 -0.294052 0.168128
                  }
                }
              }
              JOINT lPinky1
              {
                OFFSET 8.27202 -0.0477905 -0.4584
                CHANNELS 3 Zrotation Xrotation Yrotation
                JOINT lPinky2
                {
                  OFFSET 1.82734 -0.647385 -0.700984
                  CHANNELS 3 Zrotation Xrotation Yrotation
                  End Site
                  {
                    OFFSET 1.69225 -0.51767 -0.607171
                  }
                }
              }
            }
          }
        }
      }
    }
  }
  JOINT rButtock
  {
    OFFSET -8.77824 4.35084 1.2192
    CHANNELS 3 Zrotation Xrotation Yrotation
    JOINT rThigh
    {
      OFFSET 0 -1.70687 -2.19456
      CHANNELS 3 Zrotation Xrotation Yrotation
      JOINT rShin
      {
        OFFSET 0 -36.8199 0.73152
        CHANNELS 3 Zrotation Xrotation Yrotation
        JOINT rFoot
        {
          OFFSET 0.73152 -45.1104 -5.12064
          CHANNELS 3 Zrotation Xrotation Yrotation
          End Site
          {
            OFFSET -1.1221 -3.69964 12.103
          }
        }
      }
    }
  }
  JOINT lButtock
  {
    OFFSET 8.77824 4.35084 1.2192
    CHANNELS 3 Zrotation Xrotation Yrotation
    JOINT lThigh
    {
      OFFSET 0 -1.70687 -2.19456
      CHANNELS 3 Zrotation Xrotation Yrotation
      JOINT lShin
      {
        OFFSET 0 -36.8199 0.73152
        CHANNELS 3 Zrotation Xrotation Yrotation
        JOINT lFoot
        {
          OFFSET -0.73152 -45.1104 -5.12064
          CHANNELS 3 Zrotation Xrotation Yrotation
          End Site
          {
            OFFSET 1.1221 -3.69964 12.103
          }
        }
      }
    }
  }
}
MOTION
Frames:	4
Frame Time:	0.00833333
3.81264 83.8705 -21.778 -5.247 6.332 1.4416 8.62362 4.20376 -6.01354 3.90751 -2.92649 -1.50011 7.71056 -0.124361 3.79394 -13.5353 2.61152 5.6555 -0.0 0.0 0.0 -0.0 0.0 0.0 1.47264e-13 -4.40851e-14 -1.41645e-13 58.8105 10.6898 -8.12511 -21.1848 -14.5791 41.6393 -0.0187416 -3.90516 -0.549694 2.36033e-10 -1.97781e-09 -7.08792e-10 4.12056e-10 -3.42612e-09 -1.22716e-09 2.36039e-10 -1.97781e-09 -7.08811e-10 7.73091 5.47488 0.417314 2.36034e-10 -1.97781e-09 -7.08795e-10 2.90554 0.965183 0.102902 2.36043e-10 -1.97781e-09 -7.08795e-10 10.2786 0.731801 0.0259123 2.36035e-10 -1.97781e-09 -7.08787e-10 2.22167 -0.733487 -0.20892 1.47143e-13 -4.40705e-14 -1.41752e-13 -56.3168 27.7994 -17.613 20.7007 -13.9195 -40.4089 0.0295005 -4.85953 0.684668 -6.92908e-10 -2.53656e-09 4.28141e-10 -1.20063e-09 -4.39494e-09 7.39334e-10 -6.92916e-10 -2.53657e-09 4.2815e-10 -7.73091 5.47488 -0.417314 -6.92908e-10 -2.53656e-09 4.28145e-10 -2.90554 0.965183 -0.102902 -6.92915e-10 -2.53657e-09 4.28139e-10 -10.2786 0.731801 -0.0259123 -6.92903e-10 -2.53656e-09 4.28137e-10 -2.22167 -0.733487 0.20892 -2.03217e-16 0.0 -3.88251e-19 8.53785 -6.81609 -3.63346 -0.0989444 26.1919 0.503203 -3.19033 -9.91765 -11.2625 2.03217e-16 0.0 3.88251e-19 13.3845 -29.2 4.02698 0.599432 50.0235 -1.0087 3.11506 -3.98437 14.6917
3.84689 83.8831 -21.0519 -5.4034 6.3415 1.372 8.8282 4.22032 -4.80174 3.47622 -2.94562 -1.16678 7.42538 -0.132569 3.51653 -13.0953 2.64279 5.18619 -0.0 0.0 0.0 -0.0 0.0 0.0 2.32313e-14 -5.97664e-14 -1.83363e-13 58.5733 11.7322 -7.45699 -21.2718 -14.7008 41.8633 -0.0178696 -3.81284 -0.53666 1.0028e-09 -3.57011e-09 -7.28674e-10 1.73779e-09 -6.1827e-09 -1.26148e-09 1.00281e-09 -3.57011e-09 -7.28692e-10 7.73091 5.47488 0.417314 1.00281e-09 -3.57012e-09 -7.28677e-10 2.90554 0.965183 0.102902 1.00281e-09 -3.57012e-09 -7.28676e-10 10.2786 0.731801 0.0259123 1.00281e-09 -3.57012e-09 -7.2867e-10 2.22167 -0.733487 -0.20892 2.30994e-14 -5.97538e-14 -1.835e-13 -56.5995 26.0945 -16.6234 20.7548 -13.9917 -40.5449 0.0289006 -4.81135 0.677844 -3.03773e-10 -1.24067e-09 4.00679e-10 -5.29409e-10 -2.15542e-09 6.91262e-10 -3.03782e-10 -1.24067e-09 4.00693e-10 -7.73091 5.47488 -0.417314 -3.03773e-10 -1.24067e-09 4.00684e-10 -2.90554 0.965183 -0.102902 -3.03782e-10 -1.24067e-09 4.00678e-10 -10.2786 0.731801 -0.0259123 -3.03769e-10 -1.24067e-09 4.00679e-10 -2.22167 -0.733487 0.20892 -2.03217e-16 0.0 -3.88251e-19 8.68736 -5.94678 -3.66927 -0.0931708 25.5813 0.501116 -3.16377 -9.88638 -11.1998 2.03217e-16 0.0 3.88251e-19 13.2437 -29.9222 3.8967 0.563074 48.9033 -0.964151 3.23295 -4.00716 15.3288
3.8838 83.9001 -20.3249 -5.5458 6.3347 1.31 9.01269 4.2333 -3.59086 3.04905 -2.95538 -0.834443 7.13959 -0.133531 3.23994 -12.6514 2.64743 4.71656 -0.0 0.0 0.0 -0.0 0.0 0.0 -9.62825e-14 -7.6677e-14 -2.28979e-13 58.3174 12.7387 -6.77727 -21.3531 -14.8154 42.0744 -0.0169766 -3.71635 -0.52304 1.73213e-09 -5.09826e-09 -7.48135e-10 2.99874e-09 -8.82821e-09 -1.2952e-09 1.73213e-09 -5.09827e-09 -7.48151e-10 7.73091 5.47488 0.417314 1.73213e-09 -5.09827e-09 -7.48138e-10 2.90554 0.965183 0.102902 1.73214e-09 -5.09827e-09 -7.48136e-10 10.2786 0.731801 0.0259123 1.73213e-09 -5.09827e-09 -7.48133e-10 2.22167 -0.733487 -0.20892 -9.64239e-14 -7.66677e-14 -2.2915e-13 -56.8253 24.4047 -15.667 20.8192 -14.0783 -40.7078 0.029054 -4.8455 0.682653 9.95588e-11 1.60678e-10 3.62966e-10 1.66499e-10 2.66765e-10 6.25387e-10 9.95494e-11 1.60671e-10 3.62983e-10 -7.73091 5.47488 -0.417314 9.95605e-11 1.60677e-10 3.62972e-10 -2.90554 0.965183 -0.102902 9.95483e-11 1.60671e-10 3.62966e-10 -10.2786 0.731801 -0.0259123 9.9562e-11 1.60678e-10 3.62969e-10 -2.22167 -0.733487 0.20892 -2.03217e-16 0.0 -3.88251e-19 8.82789 -5.06743 -3.68119 -0.0876063 24.9373 0.496998 -3.13588 -9.82454 -11.1531 2.03217e-16 0.0 3.88251e-19 13.0667 -30.5933 3.74469 0.526564 47.6993 -0.917184 3.3295 -3.98997 15.9198
3.92113 83.9198 -19.5967 -5.6959 6.3183 1.256 9.19417 4.24278 -2.38976 2.62804 -2.95102 -0.505149 6.85112 -0.147103 2.96641 -12.2048 2.65158 4.25254 -0.0 0.0 0.0 -0.0 0.0 0.0 -1.60105e-13 -9.14444e-14 -2.6985e-13 58.0451 13.6791 -6.0595 -21.422 -14.9127 42.2547 -0.0160344 -3.61275 -0.508419 2.14303e-09 -5.9932e-09 -7.68508e-10 3.70908e-09 -1.03776e-08 -1.33072e-09 2.14303e-09 -5.99321e-09 -7.68524e-10 7.73091 5.47488 0.417314 2.14303e-09 -5.99321e-09 -7.68511e-10 2.90554 0.965183 0.102902 2.14304e-09 -5.99321e-09 -7.6851e-10 10.2786 0.731801 0.0259123 2.14303e-09 -5.99321e-09 -7.68508e-10 2.22167 -0.733487 -0.20892 -1.60247e-13 -9.14384e-14 -2.70049e-13 -57.0024 22.7251 -14.7514 20.8859 -14.1685 -40.8766 0.0295025 -4.89705 0.689934 3.88511e-10 1.12649e-09 3.18625e-10 6.65483e-10 1.93728e-09 5.48223e-10 3.88502e-10 1.12648e-09 3.18644e-10 -7.73091 5.47488 -0.417314 3.88514e-10 1.12649e-09 3.18631e-10 -2.90554 0.965183 -0.102902 3.885e-10 1.12648e-09 3.18626e-10 -10.2786 0.731801 -0.0259123 3.88514e-10 1.12649e-09 3.18628e-10 -2.22167 -0.733487 0.20892 -2.03217e-16 0.0 -3.88251e-19 8.9817 -4.17996 -3.6639 -0.0822553 24.264 0.490696 -3.11141 -9.73205 -11.1422 2.03217e-16 0.0 3.88251e-19 12.8837 -31.2267 3.57869 0.490667 46.4431 -0.868595 3.40077 -3.95001 16.424
